<?xml version="1.0" encoding="UTF-8"?>
<!DOCTYPE svg PUBLIC "-//W3C//DTD SVG 1.1//EN" "http://www.w3.org/Graphics/SVG/1.1/DTD/svg11.dtd">
<svg version="1.2" width="155.54mm" height="108.04mm" viewBox="3349 10099 15554 10804" preserveAspectRatio="xMidYMid" fill-rule="evenodd" stroke-width="28.222" stroke-linejoin="round" xmlns="http://www.w3.org/2000/svg" xmlns:ooo="http://xml.openoffice.org/svg/export" xmlns:xlink="http://www.w3.org/1999/xlink" xmlns:presentation="http://sun.com/xmlns/staroffice/presentation" xmlns:smil="http://www.w3.org/2001/SMIL20/" xmlns:anim="urn:oasis:names:tc:opendocument:xmlns:animation:1.0" xml:space="preserve">
 <defs class="EmbeddedBulletChars">
  <g id="bullet-char-template-57356" transform="scale(0.00048828125,-0.00048828125)">
   <path d="M 580,1141 L 1163,571 580,0 -4,571 580,1141 Z"/>
  </g>
  <g id="bullet-char-template-57354" transform="scale(0.00048828125,-0.00048828125)">
   <path d="M 8,1128 L 1137,1128 1137,0 8,0 8,1128 Z"/>
  </g>
  <g id="bullet-char-template-10146" transform="scale(0.00048828125,-0.00048828125)">
   <path d="M 174,0 L 602,739 174,1481 1456,739 174,0 Z M 1358,739 L 309,1346 659,739 1358,739 Z"/>
  </g>
  <g id="bullet-char-template-10132" transform="scale(0.00048828125,-0.00048828125)">
   <path d="M 2015,739 L 1276,0 717,0 1260,543 174,543 174,936 1260,936 717,1481 1274,1481 2015,739 Z"/>
  </g>
  <g id="bullet-char-template-10007" transform="scale(0.00048828125,-0.00048828125)">
   <path d="M 0,-2 C -7,14 -16,27 -25,37 L 356,567 C 262,823 215,952 215,954 215,979 228,992 255,992 264,992 276,990 289,987 310,991 331,999 354,1012 L 381,999 492,748 772,1049 836,1024 860,1049 C 881,1039 901,1025 922,1006 886,937 835,863 770,784 769,783 710,716 594,584 L 774,223 C 774,196 753,168 711,139 L 727,119 C 717,90 699,76 672,76 641,76 570,178 457,381 L 164,-76 C 142,-110 111,-127 72,-127 30,-127 9,-110 8,-76 1,-67 -2,-52 -2,-32 -2,-23 -1,-13 0,-2 Z"/>
  </g>
  <g id="bullet-char-template-10004" transform="scale(0.00048828125,-0.00048828125)">
   <path d="M 285,-33 C 182,-33 111,30 74,156 52,228 41,333 41,471 41,549 55,616 82,672 116,743 169,778 240,778 293,778 328,747 346,684 L 369,508 C 377,444 397,411 428,410 L 1163,1116 C 1174,1127 1196,1133 1229,1133 1271,1133 1292,1118 1292,1087 L 1292,965 C 1292,929 1282,901 1262,881 L 442,47 C 390,-6 338,-33 285,-33 Z"/>
  </g>
  <g id="bullet-char-template-9679" transform="scale(0.00048828125,-0.00048828125)">
   <path d="M 813,0 C 632,0 489,54 383,161 276,268 223,411 223,592 223,773 276,916 383,1023 489,1130 632,1184 813,1184 992,1184 1136,1130 1245,1023 1353,916 1407,772 1407,592 1407,412 1353,268 1245,161 1136,54 992,0 813,0 Z"/>
  </g>
  <g id="bullet-char-template-8226" transform="scale(0.00048828125,-0.00048828125)">
   <path d="M 346,457 C 273,457 209,483 155,535 101,586 74,649 74,723 74,796 101,859 155,911 209,963 273,989 346,989 419,989 480,963 531,910 582,859 608,796 608,723 608,648 583,586 532,535 482,483 420,457 346,457 Z"/>
  </g>
  <g id="bullet-char-template-8211" transform="scale(0.00048828125,-0.00048828125)">
   <path d="M -4,459 L 1135,459 1135,606 -4,606 -4,459 Z"/>
  </g>
  <g id="bullet-char-template-61548" transform="scale(0.00048828125,-0.00048828125)">
   <path d="M 173,740 C 173,903 231,1043 346,1159 462,1274 601,1332 765,1332 928,1332 1067,1274 1183,1159 1299,1043 1357,903 1357,740 1357,577 1299,437 1183,322 1067,206 928,148 765,148 601,148 462,206 346,322 231,437 173,577 173,740 Z"/>
  </g>
 </defs>
 <g class="Page">
  <g class="com.sun.star.drawing.CustomShape">
   <g id="id3">
    <rect class="BoundingBox" stroke="none" fill="none" x="3349" y="10099" width="14254" height="9504"/>
    <path fill="rgb(0,55,27)" fill-opacity="0.749" stroke="rgb(255,255,255)" stroke-opacity="0.749" d="M 4019,10100 L 4019,10100 C 3902,10100 3786,10131 3685,10190 3583,10248 3498,10333 3440,10435 3381,10536 3350,10652 3350,10769 L 3350,18931 3350,18932 C 3350,19049 3381,19165 3440,19266 3498,19368 3583,19453 3685,19511 3786,19570 3902,19601 4019,19601 L 16931,19601 16932,19601 C 17049,19601 17165,19570 17266,19511 17368,19453 17453,19368 17511,19266 17570,19165 17601,19049 17601,18932 L 17601,10769 17601,10769 17601,10769 C 17601,10652 17570,10536 17511,10435 17453,10333 17368,10248 17266,10190 17165,10131 17049,10100 16932,10100 L 4019,10100 Z"/>
    <path fill="none" stroke="rgb(0,55,27)" d="M 4019,10100 L 4019,10100 C 3902,10100 3786,10131 3685,10190 3583,10248 3498,10333 3440,10435 3381,10536 3350,10652 3350,10769 L 3350,18931 3350,18932 C 3350,19049 3381,19165 3440,19266 3498,19368 3583,19453 3685,19511 3786,19570 3902,19601 4019,19601 L 16931,19601 16932,19601 C 17049,19601 17165,19570 17266,19511 17368,19453 17453,19368 17511,19266 17570,19165 17601,19049 17601,18932 L 17601,10769 17601,10769 17601,10769 C 17601,10652 17570,10536 17511,10435 17453,10333 17368,10248 17266,10190 17165,10131 17049,10100 16932,10100 L 4019,10100 Z"/>
   </g>
  </g>
  <g class="com.sun.star.drawing.CustomShape">
   <g id="id4">
    <rect class="BoundingBox" stroke="none" fill="none" x="3999" y="10749" width="14254" height="9504"/>
    <path fill="rgb(0,55,27)" fill-opacity="0.851" stroke="rgb(255,255,255)" stroke-opacity="0.851" d="M 4669,10750 L 4669,10750 C 4552,10750 4436,10781 4335,10840 4233,10898 4148,10983 4090,11085 4031,11186 4000,11302 4000,11419 L 4000,19581 4000,19582 C 4000,19699 4031,19815 4090,19916 4148,20018 4233,20103 4335,20161 4436,20220 4552,20251 4669,20251 L 17581,20251 17582,20251 C 17699,20251 17815,20220 17916,20161 18018,20103 18103,20018 18161,19916 18220,19815 18251,19699 18251,19582 L 18251,11419 18251,11419 18251,11419 C 18251,11302 18220,11186 18161,11085 18103,10983 18018,10898 17916,10840 17815,10781 17699,10750 17582,10750 L 4669,10750 Z"/>
    <path fill="none" stroke="rgb(0,55,27)" d="M 4669,10750 L 4669,10750 C 4552,10750 4436,10781 4335,10840 4233,10898 4148,10983 4090,11085 4031,11186 4000,11302 4000,11419 L 4000,19581 4000,19582 C 4000,19699 4031,19815 4090,19916 4148,20018 4233,20103 4335,20161 4436,20220 4552,20251 4669,20251 L 17581,20251 17582,20251 C 17699,20251 17815,20220 17916,20161 18018,20103 18103,20018 18161,19916 18220,19815 18251,19699 18251,19582 L 18251,11419 18251,11419 18251,11419 C 18251,11302 18220,11186 18161,11085 18103,10983 18018,10898 17916,10840 17815,10781 17699,10750 17582,10750 L 4669,10750 Z"/>
   </g>
  </g>
  <g class="com.sun.star.drawing.CustomShape">
   <g id="id5">
    <rect class="BoundingBox" stroke="none" fill="none" x="4649" y="11399" width="14254" height="9504"/>
    <path fill="rgb(0,55,27)" stroke="none" d="M 5319,11400 L 5319,11400 C 5202,11400 5086,11431 4985,11490 4883,11548 4798,11633 4740,11735 4681,11836 4650,11952 4650,12069 L 4650,20231 4650,20232 C 4650,20349 4681,20465 4740,20566 4798,20668 4883,20753 4985,20811 5086,20870 5202,20901 5319,20901 L 18231,20901 18232,20901 C 18349,20901 18465,20870 18566,20811 18668,20753 18753,20668 18811,20566 18870,20465 18901,20349 18901,20232 L 18901,12069 18901,12069 18901,12069 C 18901,11952 18870,11836 18811,11735 18753,11633 18668,11548 18566,11490 18465,11431 18349,11400 18232,11400 L 5319,11400 Z"/>
    <path fill="none" stroke="rgb(0,55,27)" d="M 5319,11400 L 5319,11400 C 5202,11400 5086,11431 4985,11490 4883,11548 4798,11633 4740,11735 4681,11836 4650,11952 4650,12069 L 4650,20231 4650,20232 C 4650,20349 4681,20465 4740,20566 4798,20668 4883,20753 4985,20811 5086,20870 5202,20901 5319,20901 L 18231,20901 18232,20901 C 18349,20901 18465,20870 18566,20811 18668,20753 18753,20668 18811,20566 18870,20465 18901,20349 18901,20232 L 18901,12069 18901,12069 18901,12069 C 18901,11952 18870,11836 18811,11735 18753,11633 18668,11548 18566,11490 18465,11431 18349,11400 18232,11400 L 5319,11400 Z"/>
   </g>
  </g>
  <g class="com.sun.star.drawing.CustomShape">
   <g id="id6">
    <rect class="BoundingBox" stroke="none" fill="none" x="7250" y="15226" width="9000" height="1848"/>
    <path fill="rgb(0,252,168)" stroke="none" d="M 7250,16290 L 8036,16003 7250,15678 7250,15433 8461,15940 8461,16087 7250,16535 7250,16290 Z M 9692,17073 L 8555,17073 8555,16930 9692,16930 9692,17073 Z M 11993,15247 L 11400,16742 10916,16742 10328,15247 10784,15247 11074,16137 11100,16221 11137,16351 11145,16384 11152,16414 11157,16441 11160,16465 11164,16441 11170,16415 11185,16353 11220,16224 11244,16137 11534,15247 11993,15247 Z M 13385,16431 L 13183,16431 13183,16742 12764,16742 12764,16431 12035,16431 12035,16212 12791,15246 13183,15246 13183,16187 13385,16187 13385,16431 Z M 12764,15934 L 12765,15848 12769,15750 12774,15662 12777,15630 12778,15618 12778,15609 12766,15609 12721,15690 12710,15709 12696,15730 12669,15772 12403,16187 12764,16187 12764,15934 Z M 14707,15582 L 14706,15607 14704,15632 14700,15655 14694,15677 14686,15699 14677,15720 14666,15740 14654,15760 14640,15778 14626,15796 14610,15812 14593,15828 14574,15843 14556,15857 14536,15871 14515,15883 14492,15895 14470,15905 14447,15916 14422,15925 14398,15934 14373,15942 14346,15948 14320,15955 14320,15961 14371,15967 14419,15975 14464,15986 14506,15999 14545,16013 14580,16030 14614,16049 14629,16059 14643,16070 14657,16081 14669,16093 14682,16105 14693,16117 14703,16131 14712,16144 14721,16158 14728,16173 14735,16187 14740,16203 14749,16236 14755,16270 14757,16306 14756,16338 14752,16369 14745,16400 14737,16429 14727,16458 14714,16486 14699,16513 14681,16539 14660,16564 14637,16589 14612,16611 14583,16632 14552,16652 14520,16671 14483,16688 14445,16703 14403,16717 14360,16729 14312,16739 14262,16747 14209,16754 14153,16759 14094,16762 14032,16763 13955,16761 13884,16757 13815,16750 13751,16742 13690,16730 13630,16717 13572,16700 13514,16681 13514,16413 13573,16435 13632,16456 13692,16473 13753,16486 13813,16498 13870,16505 13898,16508 13925,16510 13951,16511 13978,16511 14022,16510 14064,16507 14101,16503 14136,16497 14152,16493 14166,16489 14180,16484 14193,16478 14206,16473 14217,16466 14228,16460 14237,16452 14246,16445 14254,16437 14261,16429 14268,16420 14274,16411 14281,16402 14286,16392 14291,16382 14299,16361 14305,16337 14308,16313 14309,16287 14308,16272 14307,16257 14304,16243 14301,16229 14296,16216 14290,16204 14283,16193 14274,16182 14270,16176 14265,16171 14260,16166 14254,16162 14248,16157 14242,16152 14228,16144 14213,16136 14194,16129 14176,16122 14155,16116 14133,16112 14107,16107 14080,16104 14051,16100 13985,16096 13909,16095 13788,16095 13788,15852 13912,15852 13983,15851 14015,15848 14045,15846 14073,15842 14098,15837 14123,15832 14144,15826 14163,15818 14181,15811 14197,15803 14213,15795 14227,15785 14239,15776 14249,15766 14254,15760 14258,15755 14265,15743 14272,15731 14278,15719 14283,15706 14286,15693 14289,15679 14290,15665 14291,15651 14290,15632 14288,15613 14283,15596 14276,15580 14273,15572 14269,15565 14264,15557 14259,15551 14254,15544 14248,15538 14242,15532 14235,15526 14228,15520 14221,15516 14213,15511 14204,15507 14195,15503 14185,15499 14176,15495 14166,15492 14144,15487 14121,15484 14094,15482 14067,15481 14047,15481 14026,15482 14007,15483 13988,15485 13969,15487 13950,15491 13932,15495 13914,15499 13879,15508 13848,15519 13818,15530 13789,15542 13764,15554 13740,15566 13719,15578 13710,15584 13701,15590 13517,15372 13553,15351 13592,15332 13632,15313 13674,15296 13696,15288 13718,15280 13765,15267 13816,15255 13868,15244 13896,15240 13925,15236 13986,15230 14050,15226 14117,15226 14184,15227 14247,15231 14306,15238 14363,15249 14414,15262 14463,15278 14507,15297 14529,15308 14549,15319 14568,15331 14586,15343 14603,15357 14618,15371 14632,15385 14645,15400 14657,15415 14667,15431 14677,15448 14685,15466 14692,15483 14697,15502 14702,15521 14705,15540 14707,15582 Z M 16249,16431 L 16047,16431 16047,16742 15629,16742 15629,16431 14899,16431 14899,16212 15655,15246 16047,15246 16047,16187 16249,16187 16249,16431 Z M 15629,15934 L 15630,15848 15634,15750 15639,15662 15641,15630 15642,15618 15642,15609 15631,15609 15585,15690 15574,15709 15561,15730 15533,15772 15267,16187 15629,16187 15629,15934 Z"/>
   </g>
  </g>
 </g>
</svg>